<svg width="12" height="15" viewBox="0 0 12 15" fill="none" xmlns="http://www.w3.org/2000/svg">
<path d="M1.5 8.5C1.5 9.15 1.63125 9.76562 1.89375 10.3469C2.15625 10.9281 2.53125 11.4375 3.01875 11.875C3.00625 11.8125 3 11.7563 3 11.7063V11.5375C3 11.1375 3.075 10.7625 3.225 10.4125C3.375 10.0625 3.59375 9.74375 3.88125 9.45625L6 7.375L8.11875 9.45625C8.40625 9.74375 8.625 10.0625 8.775 10.4125C8.925 10.7625 9 11.1375 9 11.5375V11.7063C9 11.7563 8.99375 11.8125 8.98125 11.875C9.46875 11.4375 9.84375 10.9281 10.1063 10.3469C10.3688 9.76562 10.5 9.15 10.5 8.5C10.5 7.875 10.3844 7.28437 10.1531 6.72812C9.92188 6.17188 9.5875 5.675 9.15 5.2375C8.9 5.4 8.6375 5.52188 8.3625 5.60313C8.0875 5.68438 7.80625 5.725 7.51875 5.725C6.74375 5.725 6.07188 5.46875 5.50313 4.95625C4.93437 4.44375 4.60625 3.8125 4.51875 3.0625C4.03125 3.475 3.6 3.90313 3.225 4.34688C2.85 4.79063 2.53438 5.24063 2.27813 5.69688C2.02188 6.15313 1.82812 6.61875 1.69688 7.09375C1.56563 7.56875 1.5 8.0375 1.5 8.5ZM6 9.475L4.93125 10.525C4.79375 10.6625 4.6875 10.8187 4.6125 10.9937C4.5375 11.1687 4.5 11.35 4.5 11.5375C4.5 11.9375 4.64687 12.2813 4.94063 12.5688C5.23438 12.8563 5.5875 13 6 13C6.4125 13 6.76563 12.8563 7.05938 12.5688C7.35313 12.2813 7.5 11.9375 7.5 11.5375C7.5 11.3375 7.4625 11.1531 7.3875 10.9844C7.3125 10.8156 7.20625 10.6625 7.06875 10.525L6 9.475ZM6 0.25V2.725C6 3.15 6.14688 3.50625 6.44063 3.79375C6.73438 4.08125 7.09375 4.225 7.51875 4.225C7.74375 4.225 7.95312 4.17813 8.14688 4.08438C8.34062 3.99063 8.5125 3.85 8.6625 3.6625L9 3.25C9.925 3.775 10.6562 4.50625 11.1938 5.44375C11.7312 6.38125 12 7.4 12 8.5C12 10.175 11.4187 11.5938 10.2563 12.7563C9.09375 13.9188 7.675 14.5 6 14.5C4.325 14.5 2.90625 13.9188 1.74375 12.7563C0.58125 11.5938 0 10.175 0 8.5C0 6.8875 0.540625 5.35625 1.62188 3.90625C2.70313 2.45625 4.1625 1.2375 6 0.25Z" fill="#E8EBEC"/>
</svg>
