<svg width="14" height="16" viewBox="0 0 14 16" fill="none" xmlns="http://www.w3.org/2000/svg">
<path d="M7 12.75C7.2125 12.75 7.39063 12.6781 7.53438 12.5344C7.67813 12.3906 7.75 12.2125 7.75 12C7.75 11.7875 7.67813 11.6094 7.53438 11.4656C7.39063 11.3219 7.2125 11.25 7 11.25C6.7875 11.25 6.60938 11.3219 6.46563 11.4656C6.32188 11.6094 6.25 11.7875 6.25 12C6.25 12.2125 6.32188 12.3906 6.46563 12.5344C6.60938 12.6781 6.7875 12.75 7 12.75ZM6.25 9.75H7.75V5.25H6.25V9.75ZM1.75 15.75C1.3375 15.75 0.984375 15.6031 0.690625 15.3094C0.396875 15.0156 0.25 14.6625 0.25 14.25V3.75C0.25 3.3375 0.396875 2.98438 0.690625 2.69063C0.984375 2.39688 1.3375 2.25 1.75 2.25H4.9C5.0625 1.8 5.33437 1.4375 5.71562 1.1625C6.09688 0.8875 6.525 0.75 7 0.75C7.475 0.75 7.90313 0.8875 8.28438 1.1625C8.66563 1.4375 8.9375 1.8 9.1 2.25H12.25C12.6625 2.25 13.0156 2.39688 13.3094 2.69063C13.6031 2.98438 13.75 3.3375 13.75 3.75V14.25C13.75 14.6625 13.6031 15.0156 13.3094 15.3094C13.0156 15.6031 12.6625 15.75 12.25 15.75H1.75ZM1.75 14.25H12.25V3.75H1.75V14.25ZM7 3.1875C7.1625 3.1875 7.29688 3.13438 7.40313 3.02813C7.50938 2.92188 7.5625 2.7875 7.5625 2.625C7.5625 2.4625 7.50938 2.32812 7.40313 2.22187C7.29688 2.11563 7.1625 2.0625 7 2.0625C6.8375 2.0625 6.70313 2.11563 6.59688 2.22187C6.49063 2.32812 6.4375 2.4625 6.4375 2.625C6.4375 2.7875 6.49063 2.92188 6.59688 3.02813C6.70313 3.13438 6.8375 3.1875 7 3.1875Z" fill="#E8EBEC"/>
</svg>
