<svg width="24" height="24" viewBox="0 0 24 24" fill="none" xmlns="http://www.w3.org/2000/svg">
<path d="M10.8 21.4C8.78 21.4 7.075 20.705 5.685 19.315C4.295 17.925 3.6 16.22 3.6 14.2C3.6 13.98 3.61 13.75 3.63 13.51C3.65 13.27 3.68 13.06 3.72 12.88C3.62 12.92 3.5 12.95 3.36 12.97C3.22 12.99 3.1 13 3 13C2.12 13 1.4 12.72 0.84 12.16C0.28 11.6 0 10.88 0 10C0 9.12 0.28 8.4 0.84 7.84C1.4 7.28 2.12 7 3 7C3.62 7 4.19 7.185 4.71 7.555C5.23 7.925 5.6 8.39 5.82 8.95C6.44 8.39 7.185 7.925 8.055 7.555C8.925 7.185 9.85 7 10.83 7H24V10.6H18V14.2C18 16.22 17.305 17.925 15.915 19.315C14.525 20.705 12.82 21.4 10.8 21.4ZM3 11.2C3.36 11.2 3.65 11.09 3.87 10.87C4.09 10.65 4.2 10.36 4.2 10C4.2 9.64 4.09 9.35 3.87 9.13C3.65 8.91 3.36 8.8 3 8.8C2.64 8.8 2.35 8.91 2.13 9.13C1.91 9.35 1.8 9.64 1.8 10C1.8 10.36 1.91 10.65 2.13 10.87C2.35 11.09 2.64 11.2 3 11.2ZM10.8 18.4C12 18.4 13 18 13.8 17.2C14.6 16.4 15 15.4 15 14.2C15 13 14.6 12 13.8 11.2C13 10.4 12 10 10.8 10C9.6 10 8.6 10.4 7.8 11.2C7 12 6.6 13 6.6 14.2C6.6 15.4 7 16.4 7.8 17.2C8.6 18 9.6 18.4 10.8 18.4ZM10.8 16.6C11.46 16.6 12.025 16.365 12.495 15.895C12.965 15.425 13.2 14.86 13.2 14.2C13.2 13.54 12.965 12.975 12.495 12.505C12.025 12.035 11.46 11.8 10.8 11.8C10.14 11.8 9.575 12.035 9.105 12.505C8.635 12.975 8.4 13.54 8.4 14.2C8.4 14.86 8.635 15.425 9.105 15.895C9.575 16.365 10.14 16.6 10.8 16.6Z" fill="#676C7C"/>
</svg>
